<svg version="1.2" xmlns="http://www.w3.org/2000/svg" viewBox="0 0 1000 1000" width="1000" height="1000">
	<title>da-hero-image-man</title>
	<style>
		.s0 { fill: #2a1e17 } 
		.s1 { fill: none;stroke: #2a1e17;stroke-linecap: round;stroke-linejoin: round;stroke-width: 2 } 
		.s2 { fill: #eaecec } 
		.s3 { fill: #f9865f } 
		.s4 { fill: #000000 } 
		.s5 { fill: #2a1e33 } 
		.s6 { fill: #7595ec } 
		.s7 { fill: #ff8a66 } 
		.s8 { fill: #fff7c9 } 
		.s9 { fill: none;stroke: #2a1e33;stroke-linecap: round;stroke-linejoin: round;stroke-width: 2 } 
	</style>
	<g id="OBJECTS">
		<g id="&lt;Clip Group&gt;">
			<path id="&lt;Path&gt;" class="s0" d="m630.8 469.9c-5.5-4-9.1-6.8-9.1-6.8 1.5-2 25.7-27.7 39.7-48.5 0 0-28.3 57-30.6 55.3z"/>
			<path id="&lt;Path&gt;" class="s1" d="m288.2 282.2c2.7 4.5 3.9 2.7 11.7 2.1 7.8-0.6 18.9 5.1 22.7 14.6 3.9 9.6 2.7 11.1 0.6 12.3-2.1 1.2-17 3-17.6 6"/>
			<path id="&lt;Path&gt;" class="s2" d=""/>
			<g id="&lt;Group&gt;">
				<path id="&lt;Path&gt;" class="s3" d="m464.6 803.5l-6.5-5 24.7-41.2 7 11.8z"/>
				<path id="&lt;Path&gt;" class="s3" d="m325.6 666.9c0 0-12.8-20.8-7.3-31l40.9 4.3z"/>
				<path id="&lt;Path&gt;" class="s4" d="m350.8 632.5l8.4 7.7c4.6 4.4 5.4 11.4 1.9 16.7l-37.4 55.2c-2.9-2.5-4.2-6.4-3.2-10.1l7.5-29.5-2.4-5.6z"/>
				<path id="&lt;Path&gt;" class="s5" d="m292.1 303.6c-11.1-13.4-2.2-20.8-2.2-20.8 25.2-6.7 36.3 15.6 39.3 24.5 2.9 8.9-11.9 9.6-23.6 9.9 0 0-2.4-0.3-13.5-13.6z"/>
				<path id="&lt;Path&gt;" class="s6" d="m315.4 654.6c-25.5-34.4-25.3-124.2-12-145.2 35.9-56.6 112.3-25.6 130.8-15.3 18.5 10.3 26 20.9 26 20.9l-32.6 58.9c-6.3-4.7-51.9-39.4-65.8-18.1-16.9 25.9 3 84.9 3 84.9z"/>
				<path id="&lt;Path&gt;" class="s1" d="m364.8 640.7c0 0-19.9-59-3-84.9 13.9-21.3 59.5 13.4 65.8 18.1"/>
				<path id="&lt;Path&gt;" class="s6" d="m532.5 554.6c-18.4 31.5-54.8 81.1-61.5 132.3-4.6 35.4 20.1 72.9 20.1 72.9l-35.2 51.2c-72.7-79-77.7-119.3-64.4-167.9 9.9-36.4 53.8-112.5 68.7-128.1z"/>
				<path id="&lt;Path&gt;" class="s0" d="m541.7 540.9l-17.5 26.6-58.4-45.9z"/>
				<path id="&lt;Path&gt;" class="s7" d="m801.6 473.4q13.7 2.9 20.8 10.4c4.8 5 2.7 7.6 0.9 9.1-1.7 1.5-8.5-0.2-14.3-5.4-5.9-5.2-7.4-14.1-7.4-14.1z"/>
				<path id="&lt;Path&gt;" class="s3" d="m621.7 463.1c1.5-2 25.7-27.7 39.7-48.5 0 0 42.3 47.4 46.9 48.9 1.7 0.6 12.1 0.5 24.9 0.3 21.8-0.2 50.7-0.4 57.1 2.8 10.2 5.1 16.4 7.6 18.9 14.8 2.6 7.1 3.6 11.8-2.5 12.2-7.2 0.5-11.8-8.7-11.8-8.7 0 0-5.8 3.6-20.9 9.2 0 0-54.2 21.1-90.4 10.9-9.9-2.8-61.9-41.9-61.9-41.9z"/>
				<path id="&lt;Path&gt;" class="s3" d="m328 276.8c8.7 3 27.3 25.7 27.3 25.7 21.2 10.8 64.9 35.2 64.9 35.2 18.7-4.2 46.9-8.7 46.9-8.7 2.4 32.6 14.1 53.8 14.1 53.8 0 0-5.1 1.3-12.8 2.8-15.6 3-41.8 7.2-54.6 3.9-17-4.2-47.8-25-52-29.2-4.2-4.2-33.1-32.5-33.1-32.5l-3.3 0.6c-13.7 0.6-20.4-8.2-19.8-11.2 0.6-3 15.5-4.8 17.6-6 2.1-1.2 3.3-2.7-0.6-12.3-3.8-9.5-14.9-15.2-22.7-14.6-7.8 0.6-9 2.4-11.7-2.1-2.7-4.5 0.2-6.6 4.8-8.4 6.3-2.4 26.4 0 35 3z"/>
				<path id="&lt;Path&gt;" class="s0" d="m460.2 357.7c-2-18.5 4.4-25.4 4.4-25.4 2.4 32.6 16.6 50.5 16.6 50.5 0 0-5.1 1.3-12.8 2.8 0 0-5.7-4.7-8.2-27.9z"/>
				<path id="&lt;Path&gt;" class="s8" d="m507.1 322.9c31.9-0.6 58.5 21.6 88.2 34.5 29.7 13 66.1 57.2 66.1 57.2-2 13.5-39.7 51.6-39.7 51.6l-19.2-14.8c-17.8 23.6-70 103.2-70 103.2-15.8 1-122.9-67.4-120.3-73.7 16.3-38.5 66.6-97.3 66.6-97.3l-3.8 1.5c-10.7-16.6-11.1-56.5-11.1-56.5 0 0 15.5-5.2 43.2-5.7z"/>
				<path id="&lt;Path&gt;" class="s0" d="m621.7 466.2l-19.2-14.8 3.1-8.4z"/>
				<path id="&lt;Path&gt;" class="s3" d="m650.9 308.7c-3.3 10.4-13 40.6-23.9 44.4-10.8 3.7-22.1-1-22.1-1l-11.5 5.9c-1.3 3.9-10.4 7.2-22.1 7.6-8.7 0.4-14-10.8-11.4-18.9 1.2-3.7 5.6-22 5.6-22 0 0 9.3-34.3 17.9-41.4 8.6-7.1 16.6-14.1 39.5-4.9 35.1 14.2 28 30.3 28 30.3z"/>
				<path id="&lt;Path&gt;" class="s5" d="m581.4 310.2c-1.6 6.4-8.2 19.2-12.6 16.9-4.4-2.3-5.9-8.2-2.8-19.5 3.1-11.3 5.6-37 14.4-41.6 8.7-4.6 12.5 0.8 12.5 0.8 0 0-3.8-18.7 7.5-21.3 0 0 3.8-1.8 2.3 11 0 0 4.3-11.8 18.5-10.2 14.1 1.5 18.9 21.3 18.9 21.3 0 0 1.1-5.4 7.5-5.4 6.4 0 16.2 9.5 13.8 20 0 0 16.5-5.2 25.2 7.9 8.7 13.1 7.7 27.5-13.4 33.1-22 5.9-21.8-19.7-25.1-23.1-3.3-3.3-6.9-7.1-19.2-2.5-12.4 4.6-25.2-9-25.2-9 0 0-2 16.4-4.1 18-2.1 1.5-6.2 3.6-5.1-4.1 1-7.7 2.3-7 1.5-9-0.8-2.1-4.2-8.6-11.5-2.8-8.2 6.4-3.1 19.5-3.1 19.5z"/>
				<path id="&lt;Path&gt;" class="s9" d="m584.9 313c-4.9-4.1-8.3-11.3-4-18.6 4.3-7.2 11.4-8.2 13.5-5.5 2.2 2.8 3 7.4 1 12.9"/>
				<path id="&lt;Path&gt;" class="s4" d="m489.8 769.1l8.3 7.8c4.7 4.3 5.5 11.3 1.9 16.6l-37.3 55.2c-2.9-2.5-4.2-6.4-3.2-10.1l7.5-29.4-2.4-5.7z"/>
				<path id="&lt;Path&gt;" class="s9" d="m592.9 266.8c0 0-2.8-9.3-11.4-11.8"/>
				<path id="&lt;Path&gt;" class="s1" d="m411.1 478.1l103.5-144.7"/>
				<path id="&lt;Path&gt;" class="s1" d="m597.2 364.4c0 0-11 7.6-28.2 6.2-17.1-1.3-15.4-22.2-11.7-27.1"/>
				<path id="&lt;Path&gt;" class="s1" d="m328 276.8c0 0 11.9 15.7 13.7 21.2"/>
				<path id="&lt;Path&gt;" class="s1" d="m773.5 475.6c0 0 8.6 2.7 15.8 0.9 7.3-1.8 11.3 5.4 5.6 8.4-15.7 8.5-23.6 2-23.6 2"/>
				<path id="&lt;Path&gt;" class="s1" d="m804.3 474.3c0 0 7.6 8.8 7.4 14.1"/>
				<path id="&lt;Path&gt;" class="s1" d="m692.6 473.3c0 0 6.9-9.1 15.7-9.8"/>
				<path id="&lt;Path&gt;" class="s1" d="m403.3 352.4c0 0 4-12.5 16.9-14.7"/>
				<path id="&lt;Path&gt;" class="s1" d="m389.5 711.7c-17.2-55.2 33.3-140.6 33.3-140.6l15.3-29.3"/>
				<path id="&lt;Path&gt;" class="s1" d="m482.8 639.8l49.7-85.2c0 0 65.1-94.4 71.8-107.7l22.9-42.5"/>
				<path id="&lt;Path&gt;" class="s1" d="m418 487.1c0 0 88.3 64.4 114.5 67.5"/>
				<path id="&lt;Path&gt;" class="s1" d="m463.9 328.6c0 0-0.1 40.4 10.8 57"/>
				<path id="&lt;Path&gt;" class="s1" d="m658.5 408.2c-2.7 16.6-39.6 51.6-39.6 51.6"/>
			</g>
		</g>
	</g>
</svg>