<svg version="1.2" xmlns="http://www.w3.org/2000/svg" viewBox="0 0 1000 1000" width="1000" height="1000">
	<title>da-hero-image-front-v2</title>
	<style>
		.s0 { fill: #2a1e17 } 
		.s1 { fill: #f9865f } 
		.s2 { fill: none;stroke: #2a1e17;stroke-linecap: round;stroke-linejoin: round;stroke-width: 2 } 
		.s3 { fill: #2a1e33 } 
		.s4 { fill: #c6cbcb } 
		.s5 { fill: #fff7dc } 
		.s6 { fill: #7595ec } 
		.s7 { fill: #ffffff } 
		.s8 { fill: #91ba83 } 
		.s9 { fill: #ffffff;stroke: #2a1e17;stroke-linecap: round;stroke-linejoin: round;stroke-width: 2 } 
		.s10 { fill: #ff6d66 } 
		.s11 { fill: #fad8b0 } 
		.s12 { fill: #a0c6f4 } 
		.s13 { fill: none;stroke: #2a1e17;stroke-linecap: round;stroke-linejoin: round;stroke-width: 1.3 } 
		.s14 { fill: #96bd89 } 
	</style>
	<g id="OBJECTS">
		<g id="&lt;Clip Group&gt;">
			<path id="&lt;Path&gt;" class="s0" d=""/>
			<path id="&lt;Path&gt;" class="s1" d=""/>
			<path id="&lt;Path&gt;" class="s0" d="m388.7 610.4c0 2.9-2.4 5.2-5.3 5.2-2.9 0-5.2-2.3-5.2-5.2 0-2.9 2.3-5.2 5.2-5.2 2.9 0 5.3 2.3 5.3 5.2z"/>
			<g id="&lt;Group&gt;">
				<path id="&lt;Path&gt;" class="s2" d="m875.5 723.1l-2.9-20.1 17.1 11.4-8.9 2z"/>
				<path id="&lt;Path&gt;" class="s2" d="m884.9 576.8c5.5 3.9 59.8 70.5-28.5 113.4-89.5 43.4-209.5 33.6-251.7-13-29-32 49-11.4 27.4 70.4-12 45.6-100.9 33.8-214-97.2-196.1-227-142.5-298.4-110.1-269.8"/>
				<path id="&lt;Path&gt;" class="s0" d="m863.1 689.7c0 2.9-2.4 5.3-5.3 5.3-2.9 0-5.2-2.4-5.2-5.3 0-2.9 2.3-5.2 5.2-5.2 2.9 0 5.3 2.3 5.3 5.2z"/>
				<path id="&lt;Path&gt;" class="s0" d="m316.5 384.9c0 2.9-2.3 5.2-5.2 5.2-2.9 0-5.3-2.3-5.3-5.2 0-2.9 2.4-5.3 5.3-5.3 2.9 0 5.2 2.4 5.2 5.3z"/>
			</g>
			<g id="&lt;Group&gt;">
				<path id="&lt;Path&gt;" class="s3" d="m815.2 576.8l-53.2-25c-4.2-2-4.2-8.1 0.2-10l98.9-43.5c1.4-0.7 3-0.7 4.4-0.1l68 29.2z"/>
				<path id="&lt;Path&gt;" class="s4" d="m818.9 484l101.7-46.4c4.7-2.1 10 1.2 10.2 6.3l2.7 83.5-118.3 49.4c0 0-3.1-60-3.3-82 0-4.7 2.7-8.9 7-10.8z"/>
				<path id="&lt;Path&gt;" class="s2" d="m920.6 437.6c9.4-2.8 10.2 6.3 10.2 6.3l2.7 83.5-118.3 49.4"/>
				<path id="&lt;Path&gt;" class="s2" d="m872.4 516.8l8-18.9"/>
				<path id="&lt;Path&gt;" class="s2" d="m880.4 516.8l8-18.9"/>
			</g>
			<g id="&lt;Group&gt;">
				<path id="&lt;Path&gt;" class="s5" d="m313.4 791c8 3.8 31.5 13.6 62.5 13.4 1.7 0 3 1.5 2.8 3.1l-4.4 34.3c-0.1 1.2-1 2.2-2.2 2.4-8.8 1.7-44.1 6.5-70.5-15.9-0.8-0.7-1.1-1.8-0.9-2.9l8.8-32.6c0.4-1.7 2.3-2.6 3.9-1.8z"/>
				<path id="&lt;Path&gt;" class="s2" d="m372 811.1c0 0-29.4 17.5-34.8 14.4-5.5-3-20.7-24.5-20.7-24.5"/>
				<path id="&lt;Path&gt;" class="s2" d="m351.6 822.5l16 16.5"/>
				<path id="&lt;Path&gt;" class="s2" d="m329.3 819.4l-18.7 5.1"/>
			</g>
			<g id="&lt;Group&gt;">
				<path id="&lt;Path&gt;" class="s2" d="m358.3 219l1.4-41.8c-0.2-3.9 1.4-5.2 3.8-5.7 11.4-2.5 45.9-10.2 83.5 0.9 4.9 1.4 4.7 4 4.6 6.3l-1.3 39.9c-0.1 2.9-3.2 5-6.6 4.5-11-1.6-25.9-2.1-41-1.9-15.7 0.1-29.6 1.3-39.4 3.1-3.7 0.8-5.1-2-5-5.3z"/>
				<path id="&lt;Path&gt;" class="s2" d="m370.9 212.9l21.9-25.6 24.2 23.9c-8.3-2.7-46.1 1.7-46.1 1.7z"/>
				<path id="&lt;Path&gt;" class="s2" d="m406.2 199.2l17.7-14.2 14.9 10.6 0.5 16.7-22.3-1.1"/>
				<path id="&lt;Path&gt;" class="s2" d="m380.5 184.8c0.2 2-1.5 3.7-3.9 3.8-2.4 0.2-4.5-1.4-4.7-3.4-0.2-2 1.5-3.7 3.9-3.9 2.3-0.1 4.4 1.4 4.7 3.5z"/>
			</g>
			<g id="&lt;Group&gt;">
				<path id="&lt;Path&gt;" class="s2" d="m781.1 762.4l14.7 27.1c1.5 2.4 1 3.8-0.4 5-6.3 5.9-25.3 23.6-53.3 30.5-3.6 0.9-4.5-0.8-5.3-2.3l-14-25.8c-1-1.9 0.2-4.4 2.5-5.4 7.6-3 17.2-8.2 26.8-14 9.9-5.9 18.3-11.8 23.8-16.6 2.1-1.8 4-0.6 5.2 1.5z"/>
				<path id="&lt;Path&gt;" class="s2" d="m775.3 771l-4.3 24.4-24.3-6.2c6.3-1.4 28.6-18.2 28.6-18.2z"/>
				<path id="&lt;Path&gt;" class="s2" d="m758 792.8l-5.9 15.6-13.4-1.2-6.6-10.4 14.6-7.6"/>
				<path id="&lt;Path&gt;" class="s2" d="m779.8 792.4c-0.9-1.2-0.5-2.9 1-3.9 1.4-0.9 3.3-0.8 4.2 0.4 0.9 1.2 0.5 3-1 3.9-1.4 1-3.3 0.8-4.2-0.4z"/>
			</g>
			<g id="behind">
			</g>
			<g id="&lt;Group&gt;">
				<path id="&lt;Path&gt;" class="s6" d="m515.6 447.8h-189.9c-6.1 0-11-4.9-11-10.9v-25.7c0-6.1 4.9-11 11-11h189.9c6 0 10.9 4.9 10.9 11v25.7c0 6-4.9 10.9-10.9 10.9z"/>
				<path id="&lt;Path&gt;" class="s7" d="m444.4 421.5h-103.5c-2 0-3.6-1.7-3.6-3.7 0-2 1.6-3.6 3.6-3.6h103.5c2 0 3.6 1.6 3.6 3.6 0 2-1.6 3.7-3.6 3.7z"/>
				<path id="&lt;Path&gt;" class="s2" d="m338.3 430.9h176"/>
			</g>
			<g id="&lt;Group&gt;">
				<path id="&lt;Path&gt;" class="s8" d="m251 318.7l-4.9 4.5c-1.3 1.3-3.5 1.2-4.8-0.2l-3-3.3 10-9.1 3 3.3c1.2 1.4 1.1 3.5-0.3 4.8z"/>
				<path id="&lt;Path&gt;" class="s2" d="m234 292.7l14.1 15.4c0.7 0.8 0.7 2.1-0.1 2.8l-9.8 8.9c-0.8 0.7-2 0.7-2.8-0.1l-14.1-15.5c-0.7-0.8-0.7-2 0.1-2.7l9.8-9c0.8-0.7 2-0.6 2.8 0.2z"/>
			</g>
			<g id="&lt;Group&gt;">
				<path id="&lt;Path&gt;" class="s2" d="m383.5 611c0 0-41.9-6.2-69.2-23.9-346.7-224.8-205.1-371.7-21.2-295.4"/>
				<path id="&lt;Path&gt;" class="s0" d="m129.2 296.8c0 2.9-2.3 5.3-5.2 5.3-2.9 0-5.3-2.4-5.3-5.3 0-2.9 2.4-5.2 5.3-5.2 2.9 0 5.2 2.3 5.2 5.2z"/>
				<g id="&lt;Group&gt;">
					<path id="&lt;Path&gt;" class="s2" d="m90.6 268l5.7-5.5 13.2 7.6 6.7 20.4-20.3-8.5z"/>
					<path id="&lt;Path&gt;" class="s2" d="m96.3 262.5l-5.7 5.5-3.2-3.9 5.5-5.3z"/>
					<path id="&lt;Path&gt;" class="s2" d="m116.2 290.5l-13.2-14.4"/>
				</g>
			</g>
			<g id="&lt;Group&gt;">
				<path id="&lt;Path&gt;" class="s9" d="m150.3 654.3l16.4-3.7c1.6-0.4 3.2 0.7 3.5 2.4l12.8 74.1c0.2 1.6-0.8 3.1-2.3 3.4l-14.9 3.2c-1.6 0.3-3.1-0.7-3.5-2.3l-14.2-73.7c-0.4-1.6 0.6-3.1 2.2-3.4z"/>
				<path id="&lt;Path&gt;" class="s10" d="m167.1 655.7l2.8 18.6-13.1 2-4.1-17.2z"/>
				<path id="&lt;Path&gt;" class="s11" d="m170.5 680.5l3.1 18.5-12.2 2-3.2-18.2z"/>
				<path id="&lt;Path&gt;" class="s12" d="m174.6 705l2.6 17.7-11 2-4.1-17.1z"/>
			</g>
			<g id="&lt;Group&gt;">
				<path id="&lt;Path&gt;" class="s2" d="m557.4 842.3l60.4-16.2 2.3 6.6-61.1 15.8z"/>
				<g id="&lt;Group&gt;">
					<path id="&lt;Path&gt;" class="s2" d="m549 833.9l1.8 5.4"/>
					<path id="&lt;Path&gt;" class="s2" d="m547.3 837.4l5.1-1.7"/>
				</g>
				<g id="&lt;Group&gt;">
					<path id="&lt;Path&gt;" class="s2" d="m546.1 854.8l3.3 10.4"/>
					<path id="&lt;Path&gt;" class="s2" d="m543.3 861.4l9.1-2.9"/>
				</g>
				<g id="&lt;Group&gt;">
					<path id="&lt;Path&gt;" class="s2" d="m532.3 837.7l4.3 13.7"/>
					<path id="&lt;Path&gt;" class="s2" d="m528 846.3l12.8-4.1"/>
				</g>
			</g>
			<g id="&lt;Group&gt;">
				<path id="&lt;Path&gt;" class="s13" d="m116.9 186l-38.2-17.3 1.5-4.3 38.5 17.7z"/>
				<g id="&lt;Group&gt;">
					<path id="&lt;Path&gt;" class="s13" d="m117.7 193.9l1.4-3.6"/>
					<path id="&lt;Path&gt;" class="s13" d="m120.1 192.8l-3.4-1.3"/>
				</g>
				<g id="&lt;Group&gt;">
					<path id="&lt;Path&gt;" class="s13" d="m128.1 184.3l2.7-6.8"/>
					<path id="&lt;Path&gt;" class="s13" d="m132.3 182.1l-5.9-2.4"/>
				</g>
				<g id="&lt;Group&gt;">
					<path id="&lt;Path&gt;" class="s13" d="m128 199l3.6-8.9"/>
					<path id="&lt;Path&gt;" class="s13" d="m133.8 196.4l-8.3-3.3"/>
				</g>
			</g>
			<g id="&lt;Group&gt;">
				<path id="&lt;Path&gt;" class="s11" d="m259.8 508.9c-27-19.4-53.5-49.6-41.8-80.6 0 0 18.5-12.3 48 3.1 29.4 15.5 29.4 15.5 29.4 15.5z"/>
				<g id="&lt;Group&gt;">
					<path id="&lt;Path&gt;" class="s7" d="m247.6 638.1c-12.2-5.7-63.9-32.7-73.2-78.7-7.9-39.8 22.5-93.5 37.8-117.2-1 31.5 30.6 58.1 45.8 69.1 15.5 11.1 26.8 16.6 42.5 22.4z"/>
					<path id="&lt;Compound Path&gt;" fill-rule="evenodd" class="s11" d="m259.8 508.9c16.1 11.6 27.5 16.8 44.9 23.2l-55.8 110c0 0-66.6-27.9-77.4-82.1-10.8-54.2 46.5-131.7 46.5-131.7-11.7 31 14.8 61.2 41.8 80.6zm-82.4 49.9c8.4 42 53.5 67.8 68.8 75.4l50.1-98.8c-14.3-5.6-25.4-11.1-40-21.7-27.2-19.5-43.2-41.2-46.5-62.1-15.7 25.9-39.4 72.3-32.4 107.2z"/>
				</g>
				<path id="&lt;Path&gt;" class="s2" d="m202.9 473.3c0 0 3.3 31.1 34.4 47.8"/>
				<path id="&lt;Path&gt;" class="s2" d="m254 532.2l31.1 16.7"/>
				<path id="&lt;Path&gt;" class="s2" d="m207.3 517.8c0 0 10 22.2 42.2 36.6"/>
				<path id="&lt;Path&gt;" class="s2" d="m181.8 521.1c0 0 1.1 23.3 16.6 31.1"/>
				<path id="&lt;Path&gt;" class="s2" d="m217.3 440c0 0-2.8 30 42.5 68.9"/>
				<path id="&lt;Path&gt;" class="s2" d="m234 445.6c0 0 14.4-1.1 35.5 14.4"/>
				<path id="&lt;Path&gt;" class="s2" d="m166.1 541.2c-0.9 14.9 0.9 68.7 78.9 103.1"/>
			</g>
			<g id="&lt;Group&gt;">
				<path id="&lt;Path&gt;" class="s8" d="m704.6 584.1c-27.2 44.6-68.6 27.4-68.6 27.4 17.5-25.7-4.9-33.9-4.9-33.9l33-66.3c0 0 67.6 28.1 40.5 72.8z"/>
				<g id="&lt;Group&gt;">
					<path id="&lt;Path&gt;" class="s7" d="m588.4 713.9c-16.7 0-34.4-6.8-52.5-20.3l61.9-102.6 36.8 23.2 0.2 0.1c0.4 0.2 8.5 3.5 20.1 3.5 9.3 0 21-2.2 32.5-10.3l-45.3 77.4c-0.1 0.2-19.5 29-53.7 29q0 0 0 0z"/>
					<path id="&lt;Compound Path&gt;" fill-rule="evenodd" class="s14" d="m644.7 686.5c0 0-20 30.4-56.3 30.4-15.8 0-34.8-5.8-56.5-22.6l64.9-107.4 39.2 24.6c0 0 7.8 3.3 18.9 3.3 14.4 0 34.3-5.5 49.7-30.7zm-104.9 6.3c16.8 12 33.2 18.1 48.6 18.1 31.6 0 49.9-25.7 51.2-27.6l39.5-67.6c-8.7 3.9-17.2 5.1-24.2 5.1-12.2 0-20.9-3.5-21.3-3.7l-0.5-0.2-0.4-0.3-34-21.4z"/>
				</g>
				<path id="&lt;Path&gt;" class="s2" d="m631.1 577.6c0 0 24.6 8.7 4.9 33.9"/>
				<path id="&lt;Path&gt;" class="s2" d="m701.5 588.3c-12.8 22.2-34.7 26.6-53.3 26.8-18.6 0.3-52.2-30.5-52.2-30.5"/>
				<path id="&lt;Path&gt;" class="s2" d="m600.1 624.4c0 0 23.1 20.5 48.9 13.9"/>
				<path id="&lt;Path&gt;" class="s2" d="m624.4 655c0 0 12.1 9.1 29 0.5"/>
				<path id="&lt;Path&gt;" class="s2" d="m568.7 667.6c0 0 27.9 27.8 71.9 9.5"/>
				<path id="&lt;Path&gt;" class="s2" d="m583.9 640.5c0 0 11.4 8.2 18.5 10.8"/>
				<path id="&lt;Path&gt;" class="s2" d="m669.8 530.5c0 0 25.5 8.3 28.6 42"/>
				<path id="&lt;Path&gt;" class="s2" d="m682.6 572.1c0 0 11.8 18.2-8.1 36.3"/>
				<path id="&lt;Path&gt;" class="s2" d="m534.3 699.4c0 0 64 54.8 110.5-9.3"/>
			</g>
			<path id="&lt;Path&gt;" class="s2" d=""/>
		</g>
	</g>
</svg>